<svg width="16" height="16" viewBox="0 0 16 16" fill="none" xmlns="http://www.w3.org/2000/svg">
<path fill-rule="evenodd" clip-rule="evenodd" d="M13.0656 4.96021C12.9618 4.63288 12.806 4.33164 12.5984 4.05649L15 1.64043L14.3629 1L11.9542 3.40895C11.6805 3.20021 11.3808 3.04366 11.0552 2.9393C10.7343 2.83019 10.4016 2.77563 10.0571 2.77563C9.63705 2.77563 9.2312 2.85628 8.8395 3.01757C8.45252 3.17887 8.11037 3.40895 7.81306 3.70781L6.21323 5.32312L10.6942 9.82748L12.3011 8.21929C12.5984 7.92042 12.8273 7.57648 12.9877 7.18748C13.1482 6.79374 13.2284 6.38576 13.2284 5.96355C13.2284 5.61724 13.1741 5.2828 13.0656 4.96021ZM12.1453 6.8388C12.0321 7.11395 11.8693 7.35826 11.6569 7.57174L10.6942 8.5395L7.49451 5.32312L8.45724 4.35536C8.6696 4.14188 8.91265 3.97822 9.18636 3.86436C9.4648 3.74576 9.75503 3.68647 10.0571 3.68647C10.3685 3.68647 10.6611 3.74814 10.9348 3.87148C11.2086 3.99008 11.4469 4.15374 11.6498 4.36247C11.8575 4.56646 12.0203 4.80603 12.1383 5.08118C12.261 5.35633 12.3223 5.65045 12.3223 5.96355C12.3223 6.26716 12.2633 6.55891 12.1453 6.8388Z" fill="#C5C5C5"/>
<path fill-rule="evenodd" clip-rule="evenodd" d="M9.14967 10.0365L10.6858 8.42826L10.0487 7.78071L8.50549 9.39602L6.58003 7.4605L8.12323 5.84519L7.47905 5.20476L5.94294 6.81295L5.30584 6.17252L3.69893 7.78071C3.40162 8.07958 3.17273 8.42589 3.01228 8.81963C2.85183 9.20864 2.7716 9.61424 2.7716 10.0365C2.7716 10.3828 2.82351 10.7196 2.92733 11.0469C3.03588 11.3695 3.19397 11.6684 3.40162 11.9435L1 14.3596L1.6371 15L4.0458 12.5911C4.31951 12.7998 4.61683 12.9587 4.93773 13.0678C5.26336 13.1722 5.59843 13.2244 5.94294 13.2244C6.36295 13.2244 6.76645 13.1437 7.15342 12.9824C7.54512 12.8211 7.88963 12.5911 8.18694 12.2922L9.78677 10.6769L9.14967 10.0365ZM6.80656 12.1428C6.53284 12.2566 6.24497 12.3135 5.94294 12.3135C5.63147 12.3135 5.33651 12.2542 5.05808 12.1356C4.78436 12.017 4.54368 11.8557 4.33603 11.6518C4.1331 11.443 3.97265 11.2011 3.85467 10.9259C3.73668 10.646 3.67769 10.3496 3.67769 10.0365C3.67769 9.73284 3.73433 9.44346 3.84759 9.16831C3.96557 8.88842 4.13074 8.64174 4.34311 8.42826L5.30584 7.4605L8.50549 10.6769L7.54276 11.6446C7.3304 11.8581 7.08499 12.0242 6.80656 12.1428Z" fill="#C5C5C5"/>
</svg>
