<svg width="16" height="16" viewBox="0 0 16 16" fill="none" xmlns="http://www.w3.org/2000/svg">
<path fill-rule="evenodd" clip-rule="evenodd" d="M13 0H3C1 0 0 1 0 3V13C0 15 1 16 3 16H13C15 16 16 15 16 13V3C16 1 15 0 13 0ZM8.99 3.224C8.682 3.07467 8.346 3 7.982 3C7.35667 3 6.82 3.168 6.372 3.504C5.924 3.84 5.58333 4.30667 5.35 4.904C5.11667 5.50134 5 6.18267 5 6.948C5 8.19867 5.21933 9.174 5.658 9.874C6.106 10.574 6.792 10.924 7.716 10.924C8.5 10.924 9.13467 10.6347 9.62 10.056V13.556L11.832 13.794V3.252H9.9L9.802 3.854C9.578 3.574 9.30733 3.364 8.99 3.224ZM7.604 5.184C7.81867 4.81067 8.136 4.624 8.556 4.624C8.77067 4.624 8.962 4.67533 9.13 4.778C9.30733 4.88067 9.47067 5.03467 9.62 5.24V8.446C9.29333 9.006 8.892 9.286 8.416 9.286C8.04267 9.286 7.758 9.118 7.562 8.782C7.37533 8.43667 7.282 7.83 7.282 6.962C7.282 6.15 7.38933 5.55733 7.604 5.184Z" fill="#BDBDBD"/>
</svg>
