<?xml version="1.0" encoding="iso-8859-1"?>
<!-- Generator: Adobe Illustrator 19.0.0, SVG Export Plug-In . SVG Version: 6.00 Build 0)  -->
<svg version="1.1" id="Capa_1" xmlns="http://www.w3.org/2000/svg" xmlns:xlink="http://www.w3.org/1999/xlink" x="0px" y="0px"
	 viewBox="0 0 60 60" style="enable-background:new 0 0 60 60;" xml:space="preserve">
<g>
	<path d="M0.835,22C0.314,22.74,0,23.635,0,24.608v11.783C0,38.933,2.067,41,4.608,41H29v8.101C27.044,49.5,25.5,51.044,25.101,53H1
		c-0.552,0-1,0.447-1,1s0.448,1,1,1h24.101c0.465,2.279,2.484,4,4.899,4s4.434-1.721,4.899-4H59c0.552,0,1-0.447,1-1s-0.448-1-1-1
		H34.899C34.5,51.044,32.956,49.5,31,49.101V41h24.392C57.933,41,60,38.933,60,36.392V24.608c0-0.974-0.314-1.868-0.835-2.608H0.835
		z M10.5,35C8.019,35,6,32.981,6,30.5S8.019,26,10.5,26s4.5,2.019,4.5,4.5S12.981,35,10.5,35z M33,54c0,1.654-1.346,3-3,3
		s-3-1.346-3-3s1.346-3,3-3S33,52.346,33,54z M34,30c-0.552,0-1-0.448-1-1s0.448-1,1-1s1,0.448,1,1S34.552,30,34,30z M36,33
		c-0.552,0-1-0.448-1-1s0.448-1,1-1s1,0.448,1,1S36.552,33,36,33z M38,30c-0.552,0-1-0.448-1-1s0.448-1,1-1s1,0.448,1,1
		S38.552,30,38,30z M40,33c-0.552,0-1-0.448-1-1s0.448-1,1-1s1,0.448,1,1S40.552,33,40,33z M42,30c-0.552,0-1-0.448-1-1s0.448-1,1-1
		s1,0.448,1,1S42.552,30,42,30z M44,33c-0.552,0-1-0.448-1-1s0.448-1,1-1s1,0.448,1,1S44.552,33,44,33z M46,30c-0.552,0-1-0.448-1-1
		s0.448-1,1-1s1,0.448,1,1S46.552,30,46,30z M48,33c-0.552,0-1-0.448-1-1s0.448-1,1-1s1,0.448,1,1S48.552,33,48,33z M50,30
		c-0.552,0-1-0.448-1-1s0.448-1,1-1s1,0.448,1,1S50.552,30,50,30z M52,33c-0.552,0-1-0.448-1-1s0.448-1,1-1s1,0.448,1,1
		S52.552,33,52,33z"/>
	<path d="M55.392,1H4.608C2.067,1,0,3.067,0,5.608v11.783C0,18.365,0.314,19.26,0.835,20h58.329C59.686,19.26,60,18.365,60,17.392
		V5.608C60,3.067,57.933,1,55.392,1z M10.5,16C8.019,16,6,13.981,6,11.5S8.019,7,10.5,7S15,9.019,15,11.5S12.981,16,10.5,16z M34,11
		c-0.552,0-1-0.448-1-1s0.448-1,1-1s1,0.448,1,1S34.552,11,34,11z M36,14c-0.552,0-1-0.448-1-1s0.448-1,1-1s1,0.448,1,1
		S36.552,14,36,14z M38,11c-0.552,0-1-0.448-1-1s0.448-1,1-1s1,0.448,1,1S38.552,11,38,11z M40,14c-0.552,0-1-0.448-1-1s0.448-1,1-1
		s1,0.448,1,1S40.552,14,40,14z M42,11c-0.552,0-1-0.448-1-1s0.448-1,1-1s1,0.448,1,1S42.552,11,42,11z M44,14c-0.552,0-1-0.448-1-1
		s0.448-1,1-1s1,0.448,1,1S44.552,14,44,14z M46,11c-0.552,0-1-0.448-1-1s0.448-1,1-1s1,0.448,1,1S46.552,11,46,11z M48,14
		c-0.552,0-1-0.448-1-1s0.448-1,1-1s1,0.448,1,1S48.552,14,48,14z M50,11c-0.552,0-1-0.448-1-1s0.448-1,1-1s1,0.448,1,1
		S50.552,11,50,11z M52,14c-0.552,0-1-0.448-1-1s0.448-1,1-1s1,0.448,1,1S52.552,14,52,14z"/>
</g>
<g>
</g>
<g>
</g>
<g>
</g>
<g>
</g>
<g>
</g>
<g>
</g>
<g>
</g>
<g>
</g>
<g>
</g>
<g>
</g>
<g>
</g>
<g>
</g>
<g>
</g>
<g>
</g>
<g>
</g>
</svg>
