<?xml version="1.0" encoding="iso-8859-1"?>
<!-- Generator: Adobe Illustrator 19.0.0, SVG Export Plug-In . SVG Version: 6.00 Build 0)  -->
<svg version="1.1" id="Capa_1" xmlns="http://www.w3.org/2000/svg" xmlns:xlink="http://www.w3.org/1999/xlink" x="0px" y="0px"
	 viewBox="0 0 489 489" style="enable-background:new 0 0 489 489;" xml:space="preserve">
<g>
	<g>
		<path d="M374.2,361.1c44.9,0,81.4-36.4,81.4-81.4l0,0c0-44.9-36.4-81.4-81.4-81.4H262.3v-35.5h111.9c44.9,0,81.4-36.4,81.4-81.4
			l0,0c0-44.9-36.4-81.4-81.4-81.4H114.8C69.9,0,33.4,36.4,33.4,81.4l0,0c0,44.9,36.4,81.4,81.4,81.4h111.9v35.5H114.8
			c-44.9,0-81.4,36.4-81.4,81.4l0,0c0,44.9,36.4,81.4,81.4,81.4h111.9v59.7c-5.8,3.3-10.7,8.1-14,14h-99
			c-6.2-11.1-18.1-18.6-31.7-18.6c-20.1,0-36.4,16.3-36.4,36.4c0,20.1,16.3,36.4,36.4,36.4c13.6,0,25.5-7.5,31.7-18.6h99
			c6.2,11.1,18.1,18.6,31.7,18.6c13.6,0,25.5-7.5,31.7-18.6h99c6.2,11.1,18.1,18.6,31.7,18.6c20.1,0,36.4-16.3,36.4-36.4
			c0-20.1-16.3-36.4-36.4-36.4c-13.6,0-25.5,7.5-31.7,18.6h-99c-3.3-5.8-8.1-10.7-14-14v-59.7H374.2z M139.2,101
			c-10.8,0-19.5-8.7-19.5-19.5S128.4,62,139.2,62s19.5,8.7,19.5,19.5C158.7,92.2,149.9,101,139.2,101z M202.2,101
			c-10.8,0-19.5-8.7-19.5-19.5S191.4,62,202.2,62s19.5,8.7,19.5,19.5C221.7,92.2,213,101,202.2,101z M139.2,299.3
			c-10.8,0-19.5-8.7-19.5-19.5s8.7-19.5,19.5-19.5s19.5,8.7,19.5,19.5C158.7,290.5,149.9,299.3,139.2,299.3z M202.2,299.3
			c-10.8,0-19.5-8.7-19.5-19.5s8.7-19.5,19.5-19.5s19.5,8.7,19.5,19.5C221.7,290.5,213,299.3,202.2,299.3z"/>
	</g>
</g>
<g>
</g>
<g>
</g>
<g>
</g>
<g>
</g>
<g>
</g>
<g>
</g>
<g>
</g>
<g>
</g>
<g>
</g>
<g>
</g>
<g>
</g>
<g>
</g>
<g>
</g>
<g>
</g>
<g>
</g>
</svg>
