<?xml version="1.0" encoding="iso-8859-1"?>
<!-- Generator: Adobe Illustrator 19.0.0, SVG Export Plug-In . SVG Version: 6.00 Build 0)  -->
<svg version="1.1" id="Layer_1" xmlns="http://www.w3.org/2000/svg" xmlns:xlink="http://www.w3.org/1999/xlink" x="0px" y="0px"
	 viewBox="0 0 330 330" style="enable-background:new 0 0 330 330;" xml:space="preserve" fill="#424242">
<g id="XMLID_308_">
	<path id="XMLID_309_" d="M315,120c8.283,0,15-6.716,15-15s-6.717-15-15-15h-34.995V64.987c0-8.284-6.716-15-15-15h-25.003V15
		c0-8.284-6.717-15-15-15c-8.285,0-15,6.716-15,15v34.987h-29.995V15c0-8.284-6.716-15-15-15c-8.284,0-15,6.716-15,15v34.987
		h-29.999V15c0-8.284-6.717-15-15-15c-8.285,0-15,6.716-15,15v34.987H65.004c-8.284,0-15,6.716-15,15V90H15c-8.284,0-15,6.716-15,15
		s6.716,15,15,15h35.004v29.996H15c-8.284,0-15,6.716-15,15c0,8.284,6.716,15,15,15h35.004V210H15c-8.284,0-15,6.716-15,15
		s6.716,15,15,15h35.004v25.004c0,8.284,6.716,15,15,15h25.004V315c0,8.284,6.715,15,15,15c8.283,0,15-6.716,15-15v-34.996h29.999
		V315c0,8.284,6.716,15,15,15c8.284,0,15-6.716,15-15v-34.996h29.995V315c0,8.284,6.715,15,15,15c8.283,0,15-6.716,15-15v-34.996
		h25.003c8.284,0,15-6.716,15-15V240H315c8.283,0,15-6.716,15-15s-6.717-15-15-15h-34.995v-30.004H315c8.283,0,15-6.716,15-15
		c0-8.284-6.717-15-15-15h-34.995V120H315z M220.002,205c0,8.284-6.717,15-15,15h-79.994c-8.285,0-15-6.716-15-15v-80
		c0-8.284,6.715-15,15-15h79.994c8.283,0,15,6.716,15,15V205z"/>
</g>
<g>
</g>
<g>
</g>
<g>
</g>
<g>
</g>
<g>
</g>
<g>
</g>
<g>
</g>
<g>
</g>
<g>
</g>
<g>
</g>
<g>
</g>
<g>
</g>
<g>
</g>
<g>
</g>
<g>
</g>
</svg>
