<svg width="16" height="16" viewBox="0 0 16 16" fill="none" xmlns="http://www.w3.org/2000/svg">
<path d="M10.7575 10.0575C11.6682 8.96661 12.1231 7.56649 12.0275 6.14861C11.9319 4.73072 11.2931 3.40437 10.2442 2.44561C9.19523 1.48684 7.81691 0.969494 6.39617 1.00139C4.97542 1.03329 3.62162 1.61188 2.61675 2.61675C1.61188 3.62162 1.03329 4.97542 1.00139 6.39617C0.969494 7.81691 1.48684 9.19523 2.44561 10.2442C3.40437 11.2931 4.73072 11.9319 6.14861 12.0275C7.56649 12.1231 8.96661 11.6682 10.0575 10.7575L14.3176 15.0275L15.0175 14.3176L10.7575 10.0575ZM9.7575 9.71758C8.91377 10.5608 7.77042 11.0354 6.57756 11.0375C5.68755 11.0375 4.81746 10.7736 4.07744 10.2791C3.33742 9.78464 2.76069 9.08184 2.42009 8.25957C2.0795 7.4373 1.99036 6.53251 2.16399 5.6596C2.33762 4.78668 2.76622 3.98485 3.39556 3.35552C4.02489 2.72618 4.82672 2.29758 5.69963 2.12395C6.57255 1.95032 7.47734 2.03946 8.29961 2.38005C9.12188 2.72065 9.82467 3.2975 10.3191 4.03752C10.8136 4.77755 11.0776 5.64751 11.0776 6.53752C11.0739 7.13437 10.9518 7.72455 10.7183 8.27385C10.4849 8.82316 10.1447 9.32074 9.71758 9.7376L9.7575 9.71758Z" fill="#424242"/>
</svg>
