<svg version="1.1" viewBox="0.0 0.0 512.0 512.0" fill="none" stroke="none" stroke-linecap="square" stroke-miterlimit="10" xmlns:xlink="http://www.w3.org/1999/xlink" xmlns="http://www.w3.org/2000/svg"><clipPath id="p.0"><path d="m0 0l512.0 0l0 512.0l-512.0 0l0 -512.0z" clip-rule="nonzero"/></clipPath><g clip-path="url(#p.0)"><path fill="#000000" fill-opacity="0.0" d="m0 0l512.0 0l0 512.0l-512.0 0z" fill-rule="evenodd"/><path fill="#ff5252" d="m0 84.516136l0 0c0 -46.676968 37.839157 -84.51613 84.51613 -84.51613l338.05438 0l0 0c22.41507 0 43.91208 8.904352 59.761932 24.7542c15.849823 15.849846 24.75418 37.346855 24.75418 59.761925l0 342.93625c0 46.67697 -37.83914 84.51611 -84.51611 84.51611l-338.05438 0c-46.67697 0 -84.51613 -37.83914 -84.51613 -84.51611z" fill-rule="evenodd"/><path fill="#ff5252" d="m370.29883 23.63422l0 0c0 -13.043459 10.5737915 -23.617271 23.617249 -23.617271l94.46625 0l0 0c6.2637024 0 12.2708435 2.488241 16.699951 6.9173384c4.429077 4.4290977 6.917328 10.436241 6.917328 16.699932l0 464.73398c0 13.043457 -10.573822 23.617249 -23.61728 23.617249l-94.46625 0c-13.043457 0 -23.617249 -10.5737915 -23.617249 -23.617249z" fill-rule="evenodd"/><path fill="#ffffff" d="m36.222347 439.9239l0 0c0 -28.51007 23.111977 -51.62207 51.622044 -51.62207l339.937 0c13.6910095 0 26.82129 5.438751 36.50229 15.119751c9.68103 9.68103 15.119751 22.81128 15.119751 36.50232l0 0l0 0c0 28.51007 -23.111969 51.62204 -51.62204 51.62204l-339.937 0c-28.510067 0 -51.622044 -23.111969 -51.622044 -51.62204z" fill-rule="evenodd"/><path fill="#ffffff" d="m420.9703 388.30182l68.188995 0l0 103.24411l-68.188995 0z" fill-rule="evenodd"/></g></svg>