<svg width="16" height="16" viewBox="0 0 16 16" fill="none" xmlns="http://www.w3.org/2000/svg">
<path d="M5.53433 1.10288C4.06514 1.10288 3.37473 1.54184 3.4631 2.41975L3.7945 5.79424C3.80554 5.893 3.81106 6.03567 3.81106 6.22222C3.81106 6.74897 3.68403 7.15501 3.42996 7.44033C3.17589 7.71468 2.78373 7.90123 2.2535 8C2.79478 8.09877 3.18693 8.28532 3.42996 8.55967C3.68403 8.82304 3.81106 9.22359 3.81106 9.76132C3.81106 9.94787 3.80554 10.096 3.7945 10.2058L3.4631 13.5802C3.41891 14.0631 3.58461 14.4033 3.96019 14.6008C4.33578 14.7984 4.86049 14.8971 5.53433 14.8971V16C4.54014 16 3.72822 15.8299 3.09856 15.4897C2.46891 15.1495 2.15408 14.5734 2.15408 13.7613C2.15408 13.6187 2.1596 13.5089 2.17065 13.4321L2.51862 10.3045C2.52966 10.2277 2.53519 10.118 2.53519 9.97531C2.53519 9.49246 2.35292 9.1358 1.98838 8.90535C1.62385 8.6749 0.961051 8.55967 0 8.55967V7.44033C0.961051 7.44033 1.62385 7.33059 1.98838 7.11111C2.35292 6.88066 2.53519 6.52401 2.53519 6.04115C2.53519 5.90946 2.52966 5.80521 2.51862 5.72839L2.17065 2.5679C2.1596 2.49108 2.15408 2.38134 2.15408 2.23868C2.15408 1.42661 2.46891 0.85048 3.09856 0.510287C3.72822 0.170096 4.54014 0 5.53433 0V1.10288Z" fill="#27AE60"/>
<path d="M10.4657 0C11.4599 0 12.2718 0.170096 12.9014 0.510287C13.5311 0.85048 13.8459 1.42661 13.8459 2.23868C13.8459 2.38134 13.8404 2.49108 13.8293 2.5679L13.4814 5.72839C13.4703 5.78326 13.4648 5.86557 13.4648 5.97531C13.4648 6.46914 13.6581 6.83676 14.0448 7.07819C14.4424 7.31962 15.0942 7.44033 16 7.44033V8.55967C15.0831 8.55967 14.4314 8.68038 14.0448 8.92181C13.6581 9.16324 13.4648 9.53635 13.4648 10.0412C13.4648 10.1509 13.4703 10.2387 13.4814 10.3045L13.8293 13.4321C13.8404 13.5089 13.8459 13.6187 13.8459 13.7613C13.8459 14.5734 13.5311 15.1495 12.9014 15.4897C12.2718 15.8299 11.4599 16 10.4657 16V14.8971C11.1395 14.8971 11.6642 14.7984 12.0398 14.6008C12.4154 14.4033 12.5811 14.0631 12.5369 13.5802L12.2055 10.2058C12.1834 9.98628 12.1724 9.83813 12.1724 9.76132C12.1724 9.21262 12.3104 8.80658 12.5866 8.54321C12.8628 8.27984 13.3102 8.10425 13.9288 8.01646C13.3323 7.90672 12.8904 7.71468 12.6032 7.44033C12.327 7.15501 12.1889 6.74348 12.1889 6.20576C12.1889 6.03018 12.1945 5.893 12.2055 5.79424L12.5369 2.41975C12.6253 1.54184 11.9349 1.10288 10.4657 1.10288V0Z" fill="#27AE60"/>
</svg>
