<svg version="1.1" viewBox="0.0 0.0 512.0 512.0" fill="none" stroke="none" stroke-linecap="square" stroke-miterlimit="10" xmlns:xlink="http://www.w3.org/1999/xlink" xmlns="http://www.w3.org/2000/svg"><clipPath id="p.0"><path d="m0 0l512.0 0l0 512.0l-512.0 0l0 -512.0z" clip-rule="nonzero"/></clipPath><g clip-path="url(#p.0)"><path fill="#000000" fill-opacity="0.0" d="m0 0l512.0 0l0 512.0l-512.0 0z" fill-rule="evenodd"/><path fill="#000000" fill-opacity="0.0" d="m15.083989 -85.86089l697.2598 0l0 645.8583l-697.2598 0z" fill-rule="evenodd"/><path fill="#69f0ae" d="m169.05273 498.60162q-89.06249 -24.984375 -89.06249 -115.03128l0 -49.234375q0 -52.203125 -44.031254 -52.203125l0 -51.20311q43.04688 0 44.031254 -49.234375l0 -52.453125q0 -45.765633 22.265625 -73.96876q22.265625 -28.203125 66.79687 -40.8125l13.859375 39.828125q-18.8125 6.921875 -28.453125 24.125q-9.640625 17.1875 -10.140625 47.609375l0 51.953133q0 55.921875 -44.281242 78.42186q44.281242 22.765625 44.281242 78.921875l0 52.453125q1.234375 57.890656 38.59375 70.75003l-13.859375 40.078125zm156.84293 -40.078125q37.609375 -13.359375 38.59375 -71.75003l0 -52.4375q0 -55.90625 45.28125 -77.6875q-45.28125 -21.76561 -45.28125 -78.92186l0 -51.703133q-0.984375 -57.640625 -38.59375 -71.734375l13.859375 -39.828125q44.28125 12.359374 66.546875 40.4375q22.265625 28.078125 22.515625 73.60938l0 53.1875q0.984375 49.234375 44.03125 49.234375l0 51.20311q-44.03125 0 -44.03125 51.703125l0 53.6875q-1.984375 86.578156 -89.0625 111.078156l-13.859375 -40.078125z" fill-rule="nonzero"/></g></svg>