<svg version="1.1" viewBox="0.0 0.0 512.0 512.0" fill="none" stroke="none" stroke-linecap="square" stroke-miterlimit="10" xmlns:xlink="http://www.w3.org/1999/xlink" xmlns="http://www.w3.org/2000/svg"><clipPath id="p.0"><path d="m0 0l512.0 0l0 512.0l-512.0 0l0 -512.0z" clip-rule="nonzero"/></clipPath><g clip-path="url(#p.0)"><path fill="#000000" fill-opacity="0.0" d="m0 0l512.0 0l0 512.0l-512.0 0z" fill-rule="evenodd"/><path fill="#ffa000" d="m-0.002624672 34.47769l512.0 0l0 76.91338l-512.0 0z" fill-rule="evenodd"/><path fill="#ffd740" d="m-0.002624672 111.39895l44.503937 0l0 366.89764l-44.503937 0z" fill-rule="evenodd"/><path fill="#ffd740" d="m233.7454 111.39895l44.50392 0l0 366.89764l-44.50392 0z" fill-rule="evenodd"/><path fill="#ffd740" d="m467.49344 111.39895l44.503937 0l0 366.89764l-44.503937 0z" fill-rule="evenodd"/><path fill="#ffd740" d="m0.0131233595 431.5137l512.0 0l0 46.80313l-512.0 0z" fill-rule="evenodd"/><path fill="#ffd740" d="m0.0131233595 248.05176l512.0 0l0 46.80316l-512.0 0z" fill-rule="evenodd"/></g></svg>