<svg version="1.1" viewBox="0.0 0.0 512.0 512.0" fill="none" stroke="none" stroke-linecap="square" stroke-miterlimit="10" xmlns:xlink="http://www.w3.org/1999/xlink" xmlns="http://www.w3.org/2000/svg"><clipPath id="p.0"><path d="m0 0l512.0 0l0 512.0l-512.0 0l0 -512.0z" clip-rule="nonzero"/></clipPath><g clip-path="url(#p.0)"><path fill="#000000" fill-opacity="0.0" d="m0 0l512.0 0l0 512.0l-512.0 0z" fill-rule="evenodd"/><path fill="#000000" fill-opacity="0.0" d="m-22.566929 -72.27559l880.15753 0l0 626.55115l-880.15753 0z" fill-rule="evenodd"/><path fill="#40c4ff" d="m122.99557 59.218155l-35.125 0l0 392.60938l35.125 0l0 55.15625l-106.875 0l0 -502.93753l106.875 0l0 55.171875zm133.59344 176.14062l45.015625 -79.90625l76.453125 0l-76.203125 131.10936l79.40625 136.5625l-76.6875 0l-47.75 -84.109375l-47.48436 84.109375l-76.953125 0l79.421875 -136.5625l-75.953125 -131.10936l76.6875 0l44.04686 79.90625zm131.60931 -231.3125l106.875 0l0 502.93753l-106.875 0l0 -55.15625l35.375 0l0 -392.60938l-35.375 0l0 -55.171875z" fill-rule="nonzero"/></g></svg>